<?xml version="1.0" encoding="utf-8"?>
<!-- Generator: Adobe Illustrator 16.0.0, SVG Export Plug-In . SVG Version: 6.00 Build 0)  -->
<!DOCTYPE svg PUBLIC "-//W3C//DTD SVG 1.1//EN" "http://www.w3.org/Graphics/SVG/1.1/DTD/svg11.dtd">
<svg version="1.1" id="Layer_1" xmlns="http://www.w3.org/2000/svg" xmlns:xlink="http://www.w3.org/1999/xlink" x="0px" y="0px"
	 width="134px" height="213px" viewBox="0 0 134 213" enable-background="new 0 0 134 213" xml:space="preserve">
<g>
	<path fill="#9C27B0" d="M66.705,0.213c-36.489,0-66.342,29.256-66.342,65.016c0,21.102,27.221,51.574,41.316,79.354
		c18.476,36.415,25.025,68.204,25.025,68.204s5.666-30.473,23.862-65.922c14.567-28.383,42.479-59.956,42.479-81.637
		C133.048,29.469,103.195,0.213,66.705,0.213z"/>
</g>
<g>
	<path fill="#FFFFFF" d="M56.275,95.559c0-3.529-0.009-7.059,0.01-10.588c0.003-0.564-0.079-0.828-0.745-0.973
		c-2.898-0.633-5.11-3.41-5.129-6.455c-0.037-5.968-0.031-11.937-0.002-17.906c0.014-2.948,2.008-5.512,4.819-6.39
		c0.483-0.151,0.775-0.107,1.129,0.307c5.433,6.358,15.144,6.424,20.679,0.135c0.432-0.49,0.786-0.596,1.386-0.383
		c2.671,0.95,4.571,3.491,4.584,6.34c0.026,5.943,0.026,11.886,0.001,17.828c-0.013,3.054-2.149,5.824-5.067,6.5
		c-0.736,0.17-0.813,0.475-0.811,1.084c0.02,3.452,0.01,6.903,0.01,10.354c0,3.452-0.06,6.904,0.021,10.354
		c0.049,2.08-1.299,3.938-3.84,3.941c-4.412,0.005-8.823,0.006-13.235-0.001c-2.523-0.004-3.882-1.851-3.831-3.949
		C56.336,102.359,56.276,98.958,56.275,95.559z"/>
	<path fill="#FFFFFF" d="M66.662,30.928c6.281,0.026,11.318,5.097,11.286,11.363c-0.032,6.299-5.066,11.285-11.37,11.26
		c-6.272-0.024-11.373-5.13-11.332-11.343C55.286,35.976,60.422,30.902,66.662,30.928z"/>
</g>
</svg>
