<?xml version="1.0" encoding="iso-8859-1"?>
<!-- Generator: Adobe Illustrator 16.0.0, SVG Export Plug-In . SVG Version: 6.00 Build 0)  -->
<!DOCTYPE svg PUBLIC "-//W3C//DTD SVG 1.1//EN" "http://www.w3.org/Graphics/SVG/1.1/DTD/svg11.dtd">
<svg version="1.1" id="Layer_1" xmlns="http://www.w3.org/2000/svg" xmlns:xlink="http://www.w3.org/1999/xlink" x="0px" y="0px"
	 width="135px" height="215px" viewBox="0 0 135 215" style="enable-background:new 0 0 135 215;" xml:space="preserve">
<g>
	<path style="fill:#F8981D;" d="M67.615,0.593C30.937,0.593,0.93,30,0.93,65.945c0,21.211,27.362,51.841,41.53,79.765
		c18.571,36.603,25.155,68.557,25.155,68.557s5.695-30.629,23.985-66.263c14.644-28.529,42.7-60.266,42.7-82.059
		C134.301,30,104.294,0.593,67.615,0.593z"/>
</g>
<path style="fill:#FFFFFF;" d="M64.409,50.438c-2.004-2.591-3.949-4.601-5.254-6.945c-1.146-2.06-1.688-4.468-2.246-6.779
	c-0.153-0.637,0.396-1.796,0.979-2.128c0.514-0.292,1.556,0.158,2.308,0.428c0.565,0.203,1.077,0.598,1.551,0.979
	c1.37,1.102,2.595,1.335,4-0.075c1.2-1.205,2.715-0.898,3.845,0.125c1.24,1.122,2.243,0.907,3.422,0.034
	c0.784-0.581,1.626-1.104,2.495-1.559c1.569-0.82,2.651-0.253,2.758,1.56c0.169,2.875-1.052,5.357-2.639,7.694
	c-0.675,0.994-1.374,1.973-1.866,3.256c1.449-0.588,2.894-1.187,4.349-1.76c1.082-0.427,2.166-0.854,3.271-1.223
	c1.696-0.567,2.309,0.458,2.772,1.78c0.469,1.333-0.089,2.024-1.346,2.463c-1.188,0.415-2.343,0.916-3.92,1.541
	c0.702,0.238,0.963,0.329,1.226,0.415c2.104,0.686,2.236,0.974,1.553,2.922c-0.589,1.679-1.723,1.552-3.114,1.051
	c-1.84-0.662-3.721-1.22-5.583-1.824c-0.094,0.132-0.187,0.264-0.279,0.396c1.417,1.189,2.755,2.485,4.266,3.55
	c7.833,5.52,11.738,12.939,12.199,22.299c0.381,7.744,2.672,14.942,7.819,21.096c2.487,2.974,2.18,4.694-1.221,6.65
	c-4.189,2.41-8.892,3.356-13.621,3.836c-10.194,1.036-20.438,1.219-30.595-0.265c-3.86-0.564-7.703-1.735-11.328-3.165
	c-4.167-1.644-4.596-4.052-1.843-7.426c5.115-6.268,7.132-13.542,7.584-21.367c0.508-8.807,4.239-15.921,11.69-21.234
	C60.135,54.981,62.153,52.576,64.409,50.438z"/>
</svg>
