<?xml version="1.0" encoding="utf-8"?>
<!-- Generator: Adobe Illustrator 16.0.0, SVG Export Plug-In . SVG Version: 6.00 Build 0)  -->
<!DOCTYPE svg PUBLIC "-//W3C//DTD SVG 1.1//EN" "http://www.w3.org/Graphics/SVG/1.1/DTD/svg11.dtd">
<svg version="1.1" id="Layer_1" xmlns="http://www.w3.org/2000/svg" xmlns:xlink="http://www.w3.org/1999/xlink" x="0px" y="0px"
	 width="120.921px" height="147.842px" viewBox="0 0 120.921 147.842" enable-background="new 0 0 120.921 147.842"
	 xml:space="preserve">
<ellipse fill="#FFFFFF" cx="60.527" cy="59.317" rx="49.25" ry="50"/>
<g>
	<path fill="#903F98" d="M51.948,81.06c0-2.881-0.008-5.761,0.007-8.642c0.003-0.46-0.064-0.676-0.607-0.794
		c-2.366-0.518-4.171-2.783-4.187-5.269c-0.03-4.871-0.025-9.743-0.002-14.614c0.012-2.406,1.64-4.499,3.934-5.216
		c0.395-0.123,0.634-0.087,0.922,0.251c4.434,5.188,12.359,5.243,16.877,0.11c0.353-0.4,0.642-0.487,1.131-0.313
		c2.181,0.775,3.731,2.85,3.742,5.175c0.021,4.85,0.021,9.7,0,14.551c-0.01,2.492-1.754,4.754-4.137,5.305
		c-0.6,0.14-0.662,0.388-0.66,0.885c0.016,2.817,0.008,5.635,0.008,8.451c0,2.817-0.049,5.636,0.018,8.451
		c0.04,1.697-1.06,3.214-3.134,3.217c-3.601,0.005-7.202,0.005-10.803-0.001c-2.06-0.003-3.168-1.511-3.127-3.224
		C51.997,86.61,51.948,83.834,51.948,81.06z"/>
	<path fill="#903F98" d="M60.425,28.31c5.128,0.021,9.238,4.16,9.212,9.274c-0.026,5.142-4.135,9.211-9.28,9.19
		c-5.119-0.02-9.282-4.187-9.249-9.258C51.141,32.43,55.332,28.288,60.425,28.31z"/>
</g>
<g>
	<path fill="#903F98" d="M60.46,11.75c26.859,0,48.711,21.851,48.711,48.71c0,26.859-21.852,48.711-48.711,48.711
		c-26.859,0-48.71-21.852-48.71-48.711C11.75,33.601,33.601,11.75,60.46,11.75 M60.46,0C27.069,0,0,27.068,0,60.46
		s27.069,60.461,60.46,60.461c33.392,0,60.461-27.069,60.461-60.461S93.852,0,60.46,0L60.46,0z"/>
</g>
<path fill="#903F98" d="M77.381,118.478c-8.099,4.661-16.921,29.364-16.921,29.364s-9.096-24.255-16.92-29.364
	C36.775,114.061,84.838,114.186,77.381,118.478z"/>
</svg>
