<?xml version="1.0" encoding="utf-8"?>
<!-- Generator: Adobe Illustrator 20.0.0, SVG Export Plug-In . SVG Version: 6.00 Build 0)  -->
<svg version="1.1" id="Layer_1" xmlns="http://www.w3.org/2000/svg" xmlns:xlink="http://www.w3.org/1999/xlink" x="0px" y="0px"
	 viewBox="0 0 282 132" style="enable-background:new 0 0 282 132;" xml:space="preserve">
<style type="text/css">
	.st0{fill:#AAA8A9;}
	.st1{fill:none;}
	.st2{fill:#ABACAB;}
	.st3{font-family:'Roboto-Medium';}
	.st4{font-size:24px;}
</style>
<g>
	<path class="st0" d="M177.9,7.2c-8-8-14.1-6.8-14.1-6.8l-28.2,28.2l-32.2,32.2l-5.6,26.5l26.5-5.6l32.2-32.2l28.2-28.1
		C184.7,21.3,185.9,15.3,177.9,7.2z M122.8,78.5l-9,1.9c-0.9-1.6-1.9-3.3-3.9-5.2c-1.9-1.9-3.6-3-5.2-3.9l2-9l2.6-2.6
		c0,0,4.9,0.1,10.5,5.7c5.6,5.6,5.7,10.5,5.7,10.5L122.8,78.5z"/>
</g>
<rect x="0.3" y="107.7" class="st1" width="281.4" height="24"/>
<text transform="matrix(1 0 0 1 27.5862 123.6507)" class="st2 st3 st4">Scrie o descriere aici</text>
</svg>
